#!OML:ASF X:\2005_08_12_Meinard\c3d\meinard.ASF
:FULLY-SPECIFIED
:DEGREES
2589
root 3.75149 16.3844 -1.19438 349.582 -85.7816 -369.37
lowerback 41.9576 0.000591395 -2.20766
upperback 7.91025 -2.1025 0.362475
thorax -11.1035 -1.41838 2.55702
lowerneck -15.3354 0.346755 -3.38734
upperneck -0.664808 0.722114 4.07904
head 2.44795 0.441116 1.99128
rclavicle -1.63003e-014 3.18055e-015
rhumerus -34.3755 26.8972 -99.3849
rradius 73.3187
rwrist 19.1885
rhand -0.997591 -9.06101
rfingers 7.12502
rthumb 24.6345 -37.4956
lclavicle -1.63003e-014 3.18055e-015
lhumerus -33.4159 -14.3947 -624.963
lradius 112.145
lwrist 535.196
lhand -2.38344 5.94094
lfingers 7.12502
lthumb 23.3056 34.5503
rfemur -168.736 -181.05 198.955
rtibia 38.7786
rfoot 152.097 171.908
rtoes 2.5075
lfemur -185.051 186.66 -187.786
ltibia 39.8333
lfoot -8.65908 21.2631
ltoes 19.3242
2590
root 3.77051 16.3931 -1.23838 348.323 -85.3887 -368.145
lowerback 41.8111 -0.0602193 -1.99531
upperback 7.91482 -2.081 0.286395
thorax -11.0624 -1.40778 2.35166
lowerneck -15.2694 0.300709 -3.38721
upperneck -0.593345 0.663553 4.04856
head 2.46267 0.412229 1.97724
rclavicle -2.78299e-015 1.78906e-015
rhumerus -34.2587 26.5209 -99.2126
rradius 72.9265
rwrist 19.9182
rhand -1.21793 -9.17919
rfingers 7.12502
rthumb 24.4233 -37.6424
lclavicle -2.78299e-015 1.78906e-015
lhumerus -34.1145 -14.3232 -624.5
lradius 111.541
lwrist 535.115
lhand -2.43847 5.99356
lfingers 7.12502
lthumb 23.2528 34.6096
rfemur -168.665 -180.743 198.98
rtibia 38.6802
rfoot 152.207 171.773
rtoes 2.44776
lfemur -184.902 186.151 -187.913
ltibia 40.0595
lfoot -9.12957 21.472
ltoes 18.6217
2591
root 3.78799 16.4026 -1.28048 346.833 -84.9935 -366.664
lowerback 41.6139 -0.110363 -1.83305
upperback 7.92517 -2.06734 0.202298
thorax -10.9971 -1.39972 2.16585
lowerneck -15.1894 0.264048 -3.32839
upperneck -0.5346 0.608732 3.97476
head 2.46974 0.383435 1.93776
rclavicle -2.44505e-014 1.0138e-014
rhumerus -34.1213 26.1465 -99.0408
rradius 72.5032
rwrist 20.6419
rhand -1.463 -9.3628
rfingers 7.12502
rthumb 24.1884 -37.8575
lclavicle -2.44505e-014 1.0138e-014
lhumerus -34.7898 -14.2101 -624.06
lradius 110.896
lwrist 534.961
lhand -2.50326 6.0596
lfingers 7.12502
lthumb 23.1906 34.6835
rfemur -168.613 -180.449 198.954
rtibia 38.577
rfoot 152.274 171.641
rtoes 2.21643
lfemur -184.76 185.623 -188.092
ltibia 40.3149
lfoot -9.60635 21.6125
ltoes 18.0889
2592
root 3.80524 16.4113 -1.32099 345.76 -84.5867 -365.617
lowerback 41.4393 -0.164438 -1.65034
upperback 7.93815 -2.05094 0.126836
thorax -10.9358 -1.39123 1.97807
lowerneck -15.1219 0.229917 -3.30245
upperneck -0.467829 0.561063 3.94752
head 2.48194 0.359975 1.92076
rclavicle 1.30204e-014 -1.03368e-014
rhumerus -33.9508 25.7162 -98.8611
rradius 72.0311
rwrist 21.4211
rhand -1.66786 -9.48456
rfingers 7.12502
rthumb 23.9919 -38.0053
lclavicle 1.30204e-014 -1.03368e-014
lhumerus -35.3808 -14.0829 -623.671
lradius 110.207
lwrist 534.73
lhand -2.64631 6.11736
lfingers 7.12502
lthumb 23.0534 34.7585
rfemur -168.533 -180.151 198.939
rtibia 38.469
rfoot 152.344 171.527
rtoes 2.09862
lfemur -184.599 185.087 -188.261
ltibia 40.6059
lfoot -10.0188 21.715
ltoes 17.9907
2593
root 3.82152 16.4204 -1.35898 345.182 -84.1723 -365.039
lowerback 41.2106 -0.232973 -1.44899
upperback 7.95704 -2.04099 0.0666162
thorax -10.8502 -1.38606 1.79865
lowerneck -15.0715 0.206304 -3.20035
upperneck -0.390929 0.518639 3.82366
head 2.49955 0.33583 1.85813
rclavicle 2.8625e-014 -7.95139e-016
rhumerus -33.7383 25.2752 -98.6599
rradius 71.5007
rwrist 22.2185
rhand -1.84868 -9.58619
rfingers 7.12502
rthumb 23.8185 -38.1296
lclavicle 2.8625e-014 -7.95139e-016
lhumerus -35.9193 -13.94 -623.313
lradius 109.469
lwrist 534.459
lhand -2.8181 6.1916
lfingers 7.12502
lthumb 22.8885 34.8532
rfemur -168.48 -179.831 198.947
rtibia 38.3594
rfoot 152.402 171.41
rtoes 1.98788
lfemur -184.469 184.555 -188.404
ltibia 40.9308
lfoot -10.4105 21.7899
ltoes 18.0779
2594
root 3.83681 16.4282 -1.39576 344.466 -83.7527 -364.32
lowerback 40.9461 -0.28659 -1.28275
upperback 7.98784 -2.02833 0.003441
thorax -10.7383 -1.37947 1.63211
lowerneck -14.9931 0.191763 -3.10446
upperneck -0.328685 0.48758 3.73294
head 2.5067 0.318321 1.80805
rclavicle -2.94201e-014 -6.36111e-015
rhumerus -33.4863 24.8179 -98.4496
rradius 70.9388
rwrist 23.0311
rhand -2.01285 -9.66506
rfingers 7.12502
rthumb 23.6611 -38.2289
lclavicle -2.94201e-014 -6.36111e-015
lhumerus -36.3986 -13.8096 -623.01
lradius 108.735
lwrist 534.106
lhand -3.03674 6.21756
lfingers 7.12502
lthumb 22.6787 34.905
rfemur -168.424 -179.578 198.948
rtibia 38.2537
rfoot 152.446 171.27
rtoes 1.75639
lfemur -184.333 184.026 -188.581
ltibia 41.2842
lfoot -10.8256 21.8546
ltoes 18.1446
2595
root 3.85109 16.4354 -1.43057 344.167 -83.3285 -364.012
lowerback 40.6658 -0.342804 -1.09079
upperback 8.01194 -2.00496 -0.0398326
thorax -10.6287 -1.36779 1.46895
lowerneck -14.9006 0.181522 -2.95201
upperneck -0.254697 0.455416 3.58038
head 2.51462 0.298243 1.727
rclavicle 1.63997e-014 2.78299e-015
rhumerus -33.2772 24.3688 -98.22
rradius 70.3859
rwrist 23.8352
rhand -2.14521 -9.74894
rfingers 7.12502
rthumb 23.5341 -38.3292
lclavicle 1.63997e-014 2.78299e-015
lhumerus -36.8192 -13.7006 -622.751
lradius 107.953
lwrist 533.728
lhand -3.31005 6.27657
lfingers 7.12502
lthumb 22.4164 34.9958
rfemur -168.37 -179.301 198.973
rtibia 38.1452
rfoot 152.498 171.144
rtoes 1.57874
lfemur -184.201 183.522 -188.734
ltibia 41.6647
lfoot -11.2292 21.9273
ltoes 18.2278
